<svg width="169" height="169" viewBox="0 0 169 169" fill="none" xmlns="http://www.w3.org/2000/svg">
<rect width="169" height="169" rx="38" fill="#040037"/>
<g clip-path="url(#paint0_angular_3317_269_clip_path)" data-figma-skip-parse="true"><g transform="matrix(0.0350058 -0.0364954 -0.0375559 -0.036023 84.354 84.3541)"><foreignObject x="-1839.67" y="-1839.67" width="3679.35" height="3679.35"><div xmlns="http://www.w3.org/1999/xhtml" style="background:conic-gradient(from 90deg,rgba(64, 181, 255, 1) 0deg,rgba(120, 110, 255, 1) 45.3942deg,rgba(227, 198, 7, 1) 135.42deg,rgba(216, 80, 245, 1) 222.551deg,rgba(6, 255, 255, 1) 313.381deg,rgba(64, 181, 255, 1) 360deg);height:100%;width:100%;opacity:1"></div></foreignObject></g></g><path fill-rule="evenodd" clip-rule="evenodd" d="M92.5761 145.706C90.2671 150.301 78.441 150.301 76.132 145.706C65.0055 123.567 45.1415 103.703 23.0018 92.5761C18.4075 90.2672 18.4075 78.441 23.0019 76.1321C45.1415 65.0055 65.0055 45.1415 76.132 23.0019C78.441 18.4076 90.2671 18.4076 92.5761 23.0019C103.703 45.1415 123.567 65.0055 145.706 76.1321C150.301 78.441 150.301 90.2672 145.706 92.5761C123.567 103.703 103.703 123.567 92.5761 145.706ZM80.2375 114.179C82.1162 117.221 86.5919 117.221 88.4706 114.179C96.0505 101.905 101.905 96.0506 114.179 88.4706C117.221 86.5919 117.221 82.1162 114.179 80.2375C101.905 72.6576 96.0505 66.8027 88.4706 54.5287C86.5919 51.4867 82.1162 51.4867 80.2375 54.5287C72.6576 66.8027 66.8027 72.6576 54.5287 80.2376C51.4866 82.1162 51.4866 86.5919 54.5287 88.4706C66.8027 96.0506 72.6576 101.905 80.2375 114.179Z" data-figma-gradient-fill="{&#34;type&#34;:&#34;GRADIENT_ANGULAR&#34;,&#34;stops&#34;:[{&#34;color&#34;:{&#34;r&#34;:0.47143337130546570,&#34;g&#34;:0.43179085850715637,&#34;b&#34;:1.0,&#34;a&#34;:1.0},&#34;position&#34;:0.12609487771987915},{&#34;color&#34;:{&#34;r&#34;:0.89195835590362549,&#34;g&#34;:0.77707988023757935,&#34;b&#34;:0.030369602143764496,&#34;a&#34;:1.0},&#34;position&#34;:0.37616750597953796},{&#34;color&#34;:{&#34;r&#34;:0.84705883264541626,&#34;g&#34;:0.31372550129890442,&#34;b&#34;:0.96078431606292725,&#34;a&#34;:1.0},&#34;position&#34;:0.61819779872894287},{&#34;color&#34;:{&#34;r&#34;:0.027437649667263031,&#34;g&#34;:1.0,&#34;b&#34;:1.0,&#34;a&#34;:1.0},&#34;position&#34;:0.87050235271453857}],&#34;stopsVar&#34;:[{&#34;color&#34;:{&#34;r&#34;:0.47143337130546570,&#34;g&#34;:0.43179085850715637,&#34;b&#34;:1.0,&#34;a&#34;:1.0},&#34;position&#34;:0.12609487771987915},{&#34;color&#34;:{&#34;r&#34;:0.89195835590362549,&#34;g&#34;:0.77707988023757935,&#34;b&#34;:0.030369602143764496,&#34;a&#34;:1.0},&#34;position&#34;:0.37616750597953796},{&#34;color&#34;:{&#34;r&#34;:0.84705883264541626,&#34;g&#34;:0.31372550129890442,&#34;b&#34;:0.96078431606292725,&#34;a&#34;:1.0},&#34;position&#34;:0.61819779872894287},{&#34;color&#34;:{&#34;r&#34;:0.027437649667263031,&#34;g&#34;:1.0,&#34;b&#34;:1.0,&#34;a&#34;:1.0},&#34;position&#34;:0.87050235271453857}],&#34;transform&#34;:{&#34;m00&#34;:70.011558532714844,&#34;m01&#34;:-75.111846923828125,&#34;m02&#34;:86.904182434082031,&#34;m10&#34;:-72.990760803222656,&#34;m11&#34;:-72.046073913574219,&#34;m12&#34;:156.87248229980469},&#34;opacity&#34;:1.0,&#34;blendMode&#34;:&#34;NORMAL&#34;,&#34;visible&#34;:true}"/>
<defs>
<clipPath id="paint0_angular_3317_269_clip_path"><path fill-rule="evenodd" clip-rule="evenodd" d="M92.5761 145.706C90.2671 150.301 78.441 150.301 76.132 145.706C65.0055 123.567 45.1415 103.703 23.0018 92.5761C18.4075 90.2672 18.4075 78.441 23.0019 76.1321C45.1415 65.0055 65.0055 45.1415 76.132 23.0019C78.441 18.4076 90.2671 18.4076 92.5761 23.0019C103.703 45.1415 123.567 65.0055 145.706 76.1321C150.301 78.441 150.301 90.2672 145.706 92.5761C123.567 103.703 103.703 123.567 92.5761 145.706ZM80.2375 114.179C82.1162 117.221 86.5919 117.221 88.4706 114.179C96.0505 101.905 101.905 96.0506 114.179 88.4706C117.221 86.5919 117.221 82.1162 114.179 80.2375C101.905 72.6576 96.0505 66.8027 88.4706 54.5287C86.5919 51.4867 82.1162 51.4867 80.2375 54.5287C72.6576 66.8027 66.8027 72.6576 54.5287 80.2376C51.4866 82.1162 51.4866 86.5919 54.5287 88.4706C66.8027 96.0506 72.6576 101.905 80.2375 114.179Z"/></clipPath></defs>
</svg>
